<svg xmlns="http://www.w3.org/2000/svg" xmlns:xlink="http://www.w3.org/1999/xlink" width="500" zoomAndPan="magnify" viewBox="0 0 375 374.999991" height="500" preserveAspectRatio="xMidYMid meet" version="1.2"><defs><clipPath id="37ed0cf8ce"><path d="M 95.390625 94 L 276.890625 94 L 276.890625 282 L 95.390625 282 Z M 95.390625 94 "/></clipPath></defs><g id="4f84586feb"><g clip-rule="nonzero" clip-path="url(#37ed0cf8ce)"><path style=" stroke:none;fill-rule:evenodd;fill:#a29a88;fill-opacity:1;" d="M 163.1875 97.632812 C 187.632812 91.488281 212.320312 95.609375 232.625 107.332031 C 253.320312 119.28125 269.457031 139.125 276.132812 164.035156 C 276.277344 164.582031 276.417969 165.132812 276.554688 165.683594 L 275.128906 166.183594 C 274.984375 165.59375 274.835938 165.007812 274.675781 164.421875 C 268.109375 139.914062 252.234375 120.390625 231.871094 108.632812 C 211.617188 96.9375 186.921875 92.933594 162.542969 99.355469 C 162.769531 98.785156 162.984375 98.210938 163.1875 97.632812 Z M 96.816406 210.539062 C 96.9375 211.019531 97.058594 211.5 97.1875 211.980469 C 103.753906 236.484375 119.632812 256.011719 139.996094 267.769531 C 160.34375 279.519531 185.175781 283.507812 209.671875 276.957031 C 209.4375 277.523438 209.214844 278.101562 209.003906 278.683594 C 184.453125 284.949219 159.632812 280.839844 139.242188 269.070312 C 118.546875 257.121094 102.40625 237.277344 95.734375 212.367188 C 95.617188 211.925781 95.5 211.480469 95.390625 211.039062 Z M 96.816406 210.539062 "/></g><g style="fill:#a29a88;fill-opacity:1;"><g transform="translate(108.246312, 189.358432)"><path style="stroke:none" d="M 35.140625 -10.953125 C 36.003906 -9.816406 36.660156 -8.535156 37.109375 -7.109375 C 37.554688 -5.691406 37.820312 -4.28125 37.90625 -2.875 C 37.9375 -2.09375 37.9375 -1.328125 37.90625 -0.578125 C 37.820312 0.472656 37.691406 1.523438 37.515625 2.578125 C 37.335938 3.628906 37.09375 4.664062 36.78125 5.6875 C 36.238281 7.476562 35.507812 9.203125 34.59375 10.859375 C 33.675781 12.523438 32.59375 14.0625 31.34375 15.46875 C 30.207031 16.789062 28.960938 18.023438 27.609375 19.171875 C 26.265625 20.328125 24.875 21.394531 23.4375 22.375 C 22.882812 22.769531 22.320312 23.140625 21.75 23.484375 C 21.1875 23.835938 20.613281 24.191406 20.03125 24.546875 C 17.300781 26.222656 14.453125 27.0625 11.484375 27.0625 C 11.484375 27.0625 11.394531 27.050781 11.21875 27.03125 C 11.039062 27.007812 10.894531 27 10.78125 27 C 8.082031 26.925781 5.992188 26.050781 4.515625 24.375 C 3.066406 22.769531 2.535156 20.753906 2.921875 18.328125 C 3.273438 16.179688 4.054688 14.375 5.265625 12.90625 C 6.484375 11.445312 7.8125 10.148438 9.25 9.015625 C 16.59375 3.117188 24.796875 -1.859375 33.859375 -5.921875 C 35.335938 -6.578125 36.078125 -7.375 36.078125 -8.3125 C 36.078125 -9.25 35.28125 -10.460938 33.6875 -11.953125 C 31.726562 -13.703125 29.675781 -14.898438 27.53125 -15.546875 C 25.382812 -16.191406 23.195312 -16.671875 20.96875 -16.984375 C 20.226562 -17.097656 19.492188 -17.191406 18.765625 -17.265625 C 18.046875 -17.347656 17.316406 -17.429688 16.578125 -17.515625 C 15.597656 -17.585938 14.609375 -17.679688 13.609375 -17.796875 C 12.617188 -17.921875 11.617188 -18.0625 10.609375 -18.21875 C 9.117188 -18.488281 8.117188 -19.054688 7.609375 -19.921875 C 7.066406 -20.859375 7.1875 -21.910156 7.96875 -23.078125 C 8.394531 -23.703125 8.921875 -24.25 9.546875 -24.71875 C 20.367188 -33.226562 31.519531 -39.398438 43 -43.234375 C 45.101562 -43.972656 47.054688 -44.34375 48.859375 -44.34375 L 49.328125 -44.28125 C 51.472656 -44.238281 53.050781 -43.632812 54.0625 -42.46875 C 55 -41.457031 55.351562 -40.148438 55.125 -38.546875 C 54.769531 -36.203125 54.113281 -34.070312 53.15625 -32.15625 C 52.195312 -30.238281 51.101562 -28.53125 49.875 -27.03125 C 48.644531 -25.53125 47.445312 -24.191406 46.28125 -23.015625 C 46 -22.742188 45.800781 -22.609375 45.6875 -22.609375 C 45.570312 -22.609375 45.457031 -22.664062 45.34375 -22.78125 C 45.03125 -23.0625 44.898438 -23.296875 44.953125 -23.484375 C 45.015625 -23.679688 45.125 -23.914062 45.28125 -24.1875 L 47.15625 -27.0625 C 47.78125 -28.039062 48.414062 -29.003906 49.0625 -29.953125 C 49.707031 -30.910156 50.320312 -31.878906 50.90625 -32.859375 C 51.414062 -33.679688 51.921875 -34.609375 52.421875 -35.640625 C 52.929688 -36.679688 53.265625 -37.84375 53.421875 -39.125 C 53.578125 -40.34375 53.398438 -41.265625 52.890625 -41.890625 C 52.347656 -42.515625 51.375 -42.863281 49.96875 -42.9375 C 49.65625 -42.976562 49.320312 -43 48.96875 -43 C 47.363281 -43 45.878906 -42.773438 44.515625 -42.328125 C 43.148438 -41.878906 41.863281 -41.398438 40.65625 -40.890625 C 33.820312 -37.921875 27.394531 -34.363281 21.375 -30.21875 C 20.28125 -29.476562 19.21875 -28.75 18.1875 -28.03125 C 17.15625 -27.3125 16.171875 -26.578125 15.234375 -25.828125 C 14.140625 -25.015625 13.160156 -24.195312 12.296875 -23.375 C 12.140625 -23.21875 11.945312 -23.039062 11.71875 -22.84375 C 11.519531 -22.6875 11.320312 -22.519531 11.125 -22.34375 C 10.9375 -22.164062 10.765625 -21.984375 10.609375 -21.796875 C 10.410156 -21.597656 10.257812 -21.398438 10.15625 -21.203125 C 10.0625 -21.003906 10.070312 -20.828125 10.1875 -20.671875 C 10.269531 -20.484375 10.425781 -20.347656 10.65625 -20.265625 C 10.894531 -20.191406 11.113281 -20.132812 11.3125 -20.09375 L 12.421875 -19.921875 C 13.003906 -19.835938 13.597656 -19.753906 14.203125 -19.671875 C 14.804688 -19.597656 15.421875 -19.503906 16.046875 -19.390625 C 16.910156 -19.234375 17.816406 -19.078125 18.765625 -18.921875 C 19.722656 -18.765625 20.691406 -18.585938 21.671875 -18.390625 C 23.503906 -17.960938 25.328125 -17.425781 27.140625 -16.78125 C 28.960938 -16.132812 30.632812 -15.226562 32.15625 -14.0625 C 32.707031 -13.632812 33.242188 -13.15625 33.765625 -12.625 C 34.296875 -12.09375 34.753906 -11.535156 35.140625 -10.953125 Z M 36.78125 -5.328125 C 36.59375 -5.523438 36.359375 -5.625 36.078125 -5.625 C 35.804688 -5.625 35.523438 -5.554688 35.234375 -5.421875 C 34.941406 -5.285156 34.675781 -5.140625 34.4375 -4.984375 L 34.203125 -4.859375 C 33.773438 -4.660156 33.351562 -4.453125 32.9375 -4.234375 C 32.53125 -4.023438 32.132812 -3.820312 31.75 -3.625 C 30.925781 -3.195312 30.113281 -2.769531 29.3125 -2.34375 C 28.519531 -1.914062 27.734375 -1.484375 26.953125 -1.046875 C 23.628906 0.816406 20.582031 2.75 17.8125 4.75 C 14.726562 6.96875 11.914062 9.3125 9.375 11.78125 C 7.03125 14.039062 5.679688 16.5 5.328125 19.15625 C 5.097656 20.832031 5.429688 22.160156 6.328125 23.140625 C 7.179688 24.117188 8.507812 24.6875 10.3125 24.84375 C 10.507812 24.875 10.722656 24.890625 10.953125 24.890625 C 11.734375 24.890625 12.492188 24.773438 13.234375 24.546875 C 22.453125 22.046875 29.640625 16.03125 34.796875 6.5 C 35.148438 5.832031 35.539062 5.039062 35.96875 4.125 C 36.394531 3.207031 36.726562 2.222656 36.96875 1.171875 C 37.28125 -0.234375 37.414062 -1.519531 37.375 -2.6875 C 37.375 -3 37.351562 -3.34375 37.3125 -3.71875 C 37.269531 -4.09375 37.191406 -4.472656 37.078125 -4.859375 C 37.035156 -5.054688 36.9375 -5.210938 36.78125 -5.328125 Z M 36.78125 -5.328125 "/></g></g><g style="fill:#a29a88;fill-opacity:1;"><g transform="translate(152.584278, 189.358432)"><path style="stroke:none" d="M 27.296875 -10.890625 C 27.765625 -10.890625 28.203125 -10.847656 28.609375 -10.765625 C 29.023438 -10.691406 29.269531 -10.617188 29.34375 -10.546875 C 29.382812 -10.546875 29.304688 -10.46875 29.109375 -10.3125 C 28.640625 -10.039062 28.125 -9.828125 27.5625 -9.671875 C 27 -9.515625 26.421875 -9.375 25.828125 -9.25 C 25.484375 -9.175781 25.113281 -9.097656 24.71875 -9.015625 C 24.332031 -8.941406 23.941406 -8.828125 23.546875 -8.671875 C 22.648438 -8.316406 21.742188 -7.972656 20.828125 -7.640625 C 19.910156 -7.304688 19 -6.96875 18.09375 -6.625 C 17.238281 -6.269531 16.554688 -5.625 16.046875 -4.6875 C 13.472656 -0.238281 10.390625 3.039062 6.796875 5.15625 L 6.5625 5.265625 C 6.132812 5.546875 5.691406 5.789062 5.234375 6 C 4.785156 6.21875 4.328125 6.328125 3.859375 6.328125 C 3.160156 6.328125 2.554688 6.035156 2.046875 5.453125 C 1.304688 4.671875 1.109375 3.972656 1.453125 3.359375 C 1.804688 2.753906 2.238281 2.203125 2.75 1.703125 C 2.945312 1.546875 3.101562 1.40625 3.21875 1.28125 C 5.644531 -1.25 8.90625 -3.453125 13 -5.328125 C 14.132812 -5.835938 14.882812 -6.550781 15.25 -7.46875 C 15.625 -8.382812 15.851562 -9.46875 15.9375 -10.71875 C 15.96875 -11.539062 15.8125 -12.144531 15.46875 -12.53125 C 15.1875 -12.8125 14.832031 -12.953125 14.40625 -12.953125 C 14.09375 -12.953125 13.742188 -12.875 13.359375 -12.71875 C 11.867188 -12.164062 10.578125 -11.410156 9.484375 -10.453125 C 8.390625 -9.492188 7.394531 -8.507812 6.5 -7.5 C 5.25 -6.132812 3.8125 -4.210938 2.1875 -1.734375 C 0.570312 0.742188 -1.128906 3.578125 -2.921875 6.765625 C -4.722656 9.953125 -6.539062 13.289062 -8.375 16.78125 C -10.207031 20.28125 -11.941406 23.738281 -13.578125 27.15625 C -15.222656 30.570312 -16.691406 33.765625 -17.984375 36.734375 C -19.273438 39.703125 -20.289062 42.238281 -21.03125 44.34375 C -21.144531 44.65625 -21.269531 44.957031 -21.40625 45.25 C -21.539062 45.539062 -21.671875 45.84375 -21.796875 46.15625 C -22.066406 46.78125 -22.328125 47.414062 -22.578125 48.0625 C -22.835938 48.707031 -22.984375 49.421875 -23.015625 50.203125 C -23.097656 50.941406 -23.507812 51.3125 -24.25 51.3125 C -24.519531 51.3125 -24.8125 51.234375 -25.125 51.078125 C -25.4375 50.878906 -25.65625 50.6875 -25.78125 50.5 C -25.894531 50.257812 -25.910156 50.007812 -25.828125 49.75 C -25.753906 49.5 -25.675781 49.257812 -25.59375 49.03125 L -25.484375 48.796875 C -24.859375 47.078125 -23.96875 44.867188 -22.8125 42.171875 C -21.664062 39.484375 -20.378906 36.5 -18.953125 33.21875 C -17.523438 29.9375 -16.03125 26.566406 -14.46875 23.109375 C -12.90625 19.648438 -11.390625 16.289062 -9.921875 13.03125 C -8.460938 9.769531 -7.132812 6.800781 -5.9375 4.125 C -4.75 1.445312 -3.785156 -0.707031 -3.046875 -2.34375 C -1.679688 -5.382812 -0.285156 -8.425781 1.140625 -11.46875 C 2.566406 -14.519531 3.960938 -17.550781 5.328125 -20.5625 L 5.625 -21.140625 C 5.78125 -21.421875 5.875 -21.734375 5.90625 -22.078125 C 5.945312 -22.429688 5.988281 -22.785156 6.03125 -23.140625 C 6.113281 -23.722656 6.222656 -24.269531 6.359375 -24.78125 C 6.492188 -25.289062 6.816406 -25.703125 7.328125 -26.015625 C 7.441406 -26.085938 7.546875 -26.171875 7.640625 -26.265625 C 7.742188 -26.367188 7.832031 -26.476562 7.90625 -26.59375 C 8.019531 -26.75 8.132812 -26.882812 8.25 -27 C 8.375 -27.125 8.515625 -27.1875 8.671875 -27.1875 C 8.867188 -27.1875 9.082031 -27.109375 9.3125 -26.953125 C 9.738281 -26.640625 9.929688 -26.332031 9.890625 -26.03125 C 9.859375 -25.738281 9.742188 -25.398438 9.546875 -25.015625 C 9.472656 -24.859375 9.414062 -24.738281 9.375 -24.65625 C 8.320312 -22.238281 7.265625 -19.816406 6.203125 -17.390625 C 5.148438 -14.972656 4.078125 -12.554688 2.984375 -10.140625 L 0.578125 -4.625 C 0.503906 -4.425781 0.414062 -4.207031 0.3125 -3.96875 C 0.21875 -3.738281 0.132812 -3.507812 0.0625 -3.28125 L -0.234375 -2.640625 L 0.109375 -2.40625 C 0.773438 -3.03125 1.398438 -3.703125 1.984375 -4.421875 C 2.578125 -5.140625 3.144531 -5.851562 3.6875 -6.5625 C 4.238281 -7.257812 4.816406 -7.96875 5.421875 -8.6875 C 6.023438 -9.414062 6.660156 -10.113281 7.328125 -10.78125 C 8.140625 -11.519531 8.925781 -12.179688 9.6875 -12.765625 C 10.457031 -13.359375 11.289062 -13.847656 12.1875 -14.234375 C 12.539062 -14.347656 12.890625 -14.460938 13.234375 -14.578125 C 13.585938 -14.703125 13.941406 -14.765625 14.296875 -14.765625 C 15.035156 -14.765625 15.753906 -14.488281 16.453125 -13.9375 C 17.203125 -13.3125 17.632812 -12.65625 17.75 -11.96875 C 17.863281 -11.289062 17.898438 -10.582031 17.859375 -9.84375 C 17.859375 -9.644531 17.847656 -9.46875 17.828125 -9.3125 C 17.816406 -9.15625 17.789062 -8.976562 17.75 -8.78125 L 17.6875 -8.203125 L 18.046875 -8.078125 C 18.078125 -8.117188 18.335938 -8.195312 18.828125 -8.3125 C 19.316406 -8.4375 19.71875 -8.535156 20.03125 -8.609375 C 20.457031 -8.722656 20.691406 -8.78125 20.734375 -8.78125 L 21.609375 -9.140625 C 21.960938 -9.253906 22.304688 -9.367188 22.640625 -9.484375 C 22.972656 -9.609375 23.296875 -9.707031 23.609375 -9.78125 C 23.804688 -9.863281 23.988281 -9.929688 24.15625 -9.984375 C 24.332031 -10.046875 24.519531 -10.113281 24.71875 -10.1875 C 25.070312 -10.3125 25.429688 -10.429688 25.796875 -10.546875 C 26.171875 -10.660156 26.554688 -10.757812 26.953125 -10.84375 C 27.023438 -10.875 27.140625 -10.890625 27.296875 -10.890625 Z M 5.15625 5.03125 C 8.394531 3.507812 11.007812 0.738281 13 -3.28125 L 12.65625 -3.515625 C 12.613281 -3.429688 12.492188 -3.347656 12.296875 -3.265625 C 12.109375 -3.191406 11.9375 -3.140625 11.78125 -3.109375 C 11.582031 -3.023438 11.441406 -2.960938 11.359375 -2.921875 C 10.816406 -2.648438 10.289062 -2.378906 9.78125 -2.109375 C 8.6875 -1.523438 7.726562 -0.9375 6.90625 -0.34375 C 6.789062 -0.269531 6.664062 -0.179688 6.53125 -0.078125 C 6.394531 0.015625 6.269531 0.0976562 6.15625 0.171875 C 5.40625 0.679688 4.675781 1.226562 3.96875 1.8125 C 3.269531 2.394531 2.765625 3.078125 2.453125 3.859375 C 2.296875 4.367188 2.335938 4.757812 2.578125 5.03125 C 2.773438 5.3125 3.125 5.453125 3.625 5.453125 C 3.90625 5.453125 4.191406 5.410156 4.484375 5.328125 C 4.773438 5.253906 5 5.15625 5.15625 5.03125 Z M 5.15625 5.03125 "/></g></g><g style="fill:#a29a88;fill-opacity:1;"><g transform="translate(178.648212, 189.358432)"><path style="stroke:none" d="M 30.109375 -11.421875 C 30.304688 -11.378906 30.421875 -11.34375 30.453125 -11.3125 C 30.578125 -11.113281 30.5 -10.859375 30.21875 -10.546875 C 26.195312 -6.328125 21.296875 -2.617188 15.515625 0.578125 L 15.109375 0.765625 C 14.910156 0.921875 14.6875 1.054688 14.4375 1.171875 C 14.1875 1.285156 13.925781 1.34375 13.65625 1.34375 C 13.257812 1.34375 12.847656 1.164062 12.421875 0.8125 C 11.910156 0.34375 11.664062 -0.09375 11.6875 -0.5 C 11.707031 -0.90625 11.796875 -1.34375 11.953125 -1.8125 C 11.992188 -1.894531 12.03125 -1.972656 12.0625 -2.046875 C 12.101562 -2.128906 12.125 -2.207031 12.125 -2.28125 C 12.476562 -3.53125 12.914062 -4.726562 13.4375 -5.875 C 13.96875 -7.03125 14.503906 -8.140625 15.046875 -9.203125 C 15.046875 -9.203125 15.171875 -9.4375 15.421875 -9.90625 C 15.679688 -10.375 15.957031 -10.867188 16.25 -11.390625 C 16.539062 -11.921875 16.75 -12.285156 16.875 -12.484375 C 16.875 -12.515625 16.953125 -12.628906 17.109375 -12.828125 C 17.453125 -13.335938 17.75 -13.863281 18 -14.40625 C 18.257812 -14.957031 18.332031 -15.390625 18.21875 -15.703125 C 18.132812 -15.890625 18.015625 -16.023438 17.859375 -16.109375 C 17.742188 -16.148438 17.648438 -16.171875 17.578125 -16.171875 C 17.179688 -16.171875 16.75 -15.953125 16.28125 -15.515625 C 15.8125 -15.085938 15.578125 -14.875 15.578125 -14.875 C 15.304688 -14.5625 15.035156 -14.171875 14.765625 -13.703125 C 14.492188 -13.234375 14.335938 -12.707031 14.296875 -12.125 L 14.296875 -11.890625 C 14.296875 -11.734375 14.285156 -11.554688 14.265625 -11.359375 C 14.242188 -11.171875 14.175781 -11.078125 14.0625 -11.078125 C 14.019531 -11.078125 13.929688 -11.101562 13.796875 -11.15625 C 13.660156 -11.21875 13.472656 -11.363281 13.234375 -11.59375 L 13.0625 -11.78125 L 12.71875 -11.359375 C 12.59375 -11.285156 12.484375 -11.1875 12.390625 -11.0625 C 12.296875 -10.945312 12.207031 -10.851562 12.125 -10.78125 C 11.65625 -10.269531 11.210938 -9.769531 10.796875 -9.28125 C 10.390625 -8.789062 9.972656 -8.3125 9.546875 -7.84375 C 8.609375 -6.75 7.648438 -5.664062 6.671875 -4.59375 C 5.703125 -3.519531 4.648438 -2.515625 3.515625 -1.578125 L 3.109375 -1.234375 C 2.753906 -0.921875 2.378906 -0.625 1.984375 -0.34375 C 1.597656 -0.0703125 1.171875 0.0625 0.703125 0.0625 C 0.304688 0.0625 -0.101562 -0.0703125 -0.53125 -0.34375 C -1.34375 -0.9375 -1.726562 -1.625 -1.6875 -2.40625 C -1.65625 -3.1875 -1.539062 -3.945312 -1.34375 -4.6875 L -1.28125 -5.03125 C -0.351562 -8.78125 1.320312 -12.003906 3.75 -14.703125 C 5.425781 -16.578125 7.414062 -17.515625 9.71875 -17.515625 L 9.90625 -17.515625 C 10.40625 -17.515625 10.890625 -17.484375 11.359375 -17.421875 C 11.828125 -17.367188 12.179688 -17.1875 12.421875 -16.875 C 13.117188 -15.851562 13.78125 -15.34375 14.40625 -15.34375 C 14.71875 -15.34375 14.988281 -15.441406 15.21875 -15.640625 C 15.457031 -15.835938 15.710938 -16.050781 15.984375 -16.28125 L 16.171875 -16.453125 C 16.515625 -16.804688 16.90625 -17.082031 17.34375 -17.28125 C 17.53125 -17.351562 17.710938 -17.421875 17.890625 -17.484375 C 18.066406 -17.546875 18.234375 -17.578125 18.390625 -17.578125 C 18.660156 -17.578125 18.9375 -17.476562 19.21875 -17.28125 C 19.53125 -17.007812 19.675781 -16.734375 19.65625 -16.453125 C 19.632812 -16.179688 19.546875 -15.890625 19.390625 -15.578125 C 18.722656 -14.140625 18.054688 -12.722656 17.390625 -11.328125 C 16.734375 -9.941406 16.070312 -8.566406 15.40625 -7.203125 L 14.359375 -4.984375 C 14.117188 -4.546875 13.910156 -4.09375 13.734375 -3.625 C 13.554688 -3.15625 13.390625 -2.707031 13.234375 -2.28125 L 12.953125 -1.40625 C 12.796875 -1.007812 12.773438 -0.71875 12.890625 -0.53125 C 12.960938 -0.40625 13.078125 -0.304688 13.234375 -0.234375 C 13.359375 -0.191406 13.5 -0.171875 13.65625 -0.171875 C 14.039062 -0.171875 14.484375 -0.285156 14.984375 -0.515625 C 15.492188 -0.753906 15.847656 -0.929688 16.046875 -1.046875 C 17.296875 -1.910156 18.523438 -2.78125 19.734375 -3.65625 C 20.953125 -4.539062 22.125 -5.410156 23.25 -6.265625 C 23.644531 -6.535156 24.015625 -6.816406 24.359375 -7.109375 C 24.710938 -7.410156 25.085938 -7.695312 25.484375 -7.96875 C 25.710938 -8.164062 25.953125 -8.367188 26.203125 -8.578125 C 26.460938 -8.796875 26.726562 -9.003906 27 -9.203125 C 27.125 -9.316406 27.242188 -9.421875 27.359375 -9.515625 C 27.472656 -9.617188 27.609375 -9.707031 27.765625 -9.78125 C 27.960938 -9.976562 28.175781 -10.164062 28.40625 -10.34375 C 28.644531 -10.519531 28.878906 -10.703125 29.109375 -10.890625 L 29.34375 -11.015625 C 29.457031 -11.085938 29.582031 -11.171875 29.71875 -11.265625 C 29.863281 -11.367188 29.992188 -11.421875 30.109375 -11.421875 Z M 13 -13.65625 C 13.394531 -14.082031 13.378906 -14.585938 12.953125 -15.171875 C 12.441406 -15.835938 11.832031 -16.171875 11.125 -16.171875 C 11.050781 -16.171875 10.972656 -16.171875 10.890625 -16.171875 C 9.921875 -15.972656 9.0625 -15.660156 8.3125 -15.234375 C 6.59375 -14.210938 5.207031 -12.941406 4.15625 -11.421875 C 3.101562 -9.898438 2.1875 -8.394531 1.40625 -6.90625 C 1.320312 -6.75 1.234375 -6.59375 1.140625 -6.4375 C 1.046875 -6.28125 0.957031 -6.125 0.875 -5.96875 C 0.644531 -5.625 0.429688 -5.253906 0.234375 -4.859375 C 0.0351562 -4.472656 -0.117188 -4.046875 -0.234375 -3.578125 C -0.273438 -3.378906 -0.296875 -3.023438 -0.296875 -2.515625 C -0.296875 -2.003906 -0.160156 -1.632812 0.109375 -1.40625 C 0.234375 -1.25 0.390625 -1.171875 0.578125 -1.171875 C 0.734375 -1.171875 0.929688 -1.226562 1.171875 -1.34375 C 2.847656 -2.394531 4.335938 -3.644531 5.640625 -5.09375 C 6.953125 -6.539062 8.21875 -8.003906 9.4375 -9.484375 C 10.019531 -10.191406 10.601562 -10.894531 11.1875 -11.59375 C 11.769531 -12.300781 12.375 -12.988281 13 -13.65625 Z M 13 -13.65625 "/></g></g><g style="fill:#a29a88;fill-opacity:1;"><g transform="translate(207.172104, 189.358432)"><path style="stroke:none" d="M 25.59375 -9.078125 C 25.832031 -9.035156 25.972656 -8.976562 26.015625 -8.90625 C 26.046875 -8.789062 25.96875 -8.65625 25.78125 -8.5 C 25.070312 -8.101562 24.289062 -7.90625 23.4375 -7.90625 C 22.300781 -7.90625 21.144531 -8.195312 19.96875 -8.78125 C 18.800781 -9.375 17.804688 -10.140625 16.984375 -11.078125 C 16.242188 -11.890625 15.675781 -12.488281 15.28125 -12.875 C 14.894531 -13.269531 14.488281 -13.46875 14.0625 -13.46875 C 13.789062 -13.46875 13.476562 -13.359375 13.125 -13.140625 C 12.769531 -12.929688 12.335938 -12.648438 11.828125 -12.296875 C 9.953125 -10.972656 8.191406 -9.519531 6.546875 -7.9375 C 4.910156 -6.351562 3.332031 -4.757812 1.8125 -3.15625 L 0.34375 -1.703125 C 0.3125 -1.617188 0.21875 -1.476562 0.0625 -1.28125 C -0.0507812 -1.125 -0.175781 -0.976562 -0.3125 -0.84375 C -0.457031 -0.707031 -0.625 -0.640625 -0.8125 -0.640625 C -1.050781 -0.640625 -1.347656 -0.757812 -1.703125 -1 C -2.128906 -1.3125 -2.320312 -1.628906 -2.28125 -1.953125 C -2.238281 -2.285156 -2.179688 -2.609375 -2.109375 -2.921875 L -1.984375 -3.15625 C -0.429688 -8.125 1.476562 -12.5 3.75 -16.28125 L 3.859375 -16.40625 C 3.984375 -16.632812 4.140625 -16.863281 4.328125 -17.09375 C 4.523438 -17.332031 4.742188 -17.453125 4.984375 -17.453125 C 5.140625 -17.453125 5.3125 -17.394531 5.5 -17.28125 C 5.78125 -17.082031 5.957031 -16.882812 6.03125 -16.6875 C 6.113281 -16.5 6.113281 -16.296875 6.03125 -16.078125 C 5.957031 -15.859375 5.859375 -15.65625 5.734375 -15.46875 C 5.660156 -15.226562 5.601562 -15.070312 5.5625 -15 L 5.09375 -13.890625 C 4.863281 -13.296875 4.617188 -12.695312 4.359375 -12.09375 C 4.109375 -11.488281 3.847656 -10.894531 3.578125 -10.3125 C 3.421875 -9.914062 3.242188 -9.519531 3.046875 -9.125 C 2.847656 -8.738281 2.671875 -8.351562 2.515625 -7.96875 C 2.472656 -7.96875 2.394531 -7.8125 2.28125 -7.5 C 2.164062 -7.1875 2.054688 -6.851562 1.953125 -6.5 C 1.859375 -6.144531 1.851562 -5.910156 1.9375 -5.796875 L 2.046875 -5.6875 L 2.171875 -5.6875 C 2.554688 -5.757812 2.882812 -5.910156 3.15625 -6.140625 C 3.4375 -6.378906 3.691406 -6.632812 3.921875 -6.90625 C 4.003906 -6.988281 4.09375 -7.078125 4.1875 -7.171875 C 4.28125 -7.273438 4.390625 -7.382812 4.515625 -7.5 L 6.96875 -9.546875 C 7.75 -10.210938 8.53125 -10.867188 9.3125 -11.515625 C 10.09375 -12.160156 10.875 -12.796875 11.65625 -13.421875 C 12.707031 -14.191406 13.507812 -14.578125 14.0625 -14.578125 C 14.5625 -14.578125 15.054688 -14.351562 15.546875 -13.90625 C 16.035156 -13.457031 16.648438 -12.785156 17.390625 -11.890625 C 18.210938 -10.878906 19.160156 -10.085938 20.234375 -9.515625 C 21.304688 -8.953125 22.390625 -8.671875 23.484375 -8.671875 C 23.835938 -8.671875 24.191406 -8.707031 24.546875 -8.78125 C 24.660156 -8.78125 24.816406 -8.820312 25.015625 -8.90625 C 25.285156 -9.019531 25.476562 -9.078125 25.59375 -9.078125 Z M 25.59375 -9.078125 "/></g></g><g style="fill:#a29a88;fill-opacity:1;"><g transform="translate(231.947476, 189.358432)"><path style="stroke:none" d="M 31.390625 -9.546875 C 31.515625 -9.472656 31.59375 -9.375 31.625 -9.25 C 31.664062 -9.132812 31.628906 -9 31.515625 -8.84375 C 31.398438 -8.6875 31.28125 -8.550781 31.15625 -8.4375 L 30.984375 -8.265625 C 27.859375 -4.742188 24.554688 -2.09375 21.078125 -0.3125 C 17.609375 1.457031 13.785156 2.421875 9.609375 2.578125 C 9.253906 2.578125 8.960938 2.578125 8.734375 2.578125 C 6.078125 2.578125 3.734375 2.050781 1.703125 1 C 1.035156 0.6875 0.503906 0.53125 0.109375 0.53125 C -0.273438 0.53125 -0.5625 0.664062 -0.75 0.9375 C -0.945312 1.207031 -1.125 1.554688 -1.28125 1.984375 C -2.414062 5.234375 -3.804688 8.945312 -5.453125 13.125 L -5.625 13.59375 C -5.78125 14.019531 -5.953125 14.4375 -6.140625 14.84375 C -6.335938 15.257812 -6.613281 15.46875 -6.96875 15.46875 C -7.164062 15.46875 -7.34375 15.425781 -7.5 15.34375 C -8.082031 15.03125 -8.34375 14.59375 -8.28125 14.03125 C -8.226562 13.46875 -8.082031 12.851562 -7.84375 12.1875 L -7.671875 11.71875 C -7.285156 10.582031 -6.882812 9.4375 -6.46875 8.28125 C -6.0625 7.132812 -5.644531 5.972656 -5.21875 4.796875 L -4.328125 2.40625 C -4.210938 2.164062 -4.101562 1.914062 -4 1.65625 C -3.90625 1.40625 -3.800781 1.164062 -3.6875 0.9375 C -3.332031 0.0820312 -3.019531 -0.789062 -2.75 -1.6875 C -2.476562 -2.59375 -2.421875 -3.59375 -2.578125 -4.6875 C -2.648438 -5.3125 -2.566406 -5.859375 -2.328125 -6.328125 C -2.097656 -6.796875 -1.847656 -7.164062 -1.578125 -7.4375 C 0.253906 -9.425781 1.742188 -11.671875 2.890625 -14.171875 C 4.046875 -16.671875 5.171875 -19.171875 6.265625 -21.671875 C 7.398438 -24.328125 8.671875 -26.929688 10.078125 -29.484375 C 11.484375 -32.046875 12.890625 -34.578125 14.296875 -37.078125 C 14.992188 -38.285156 15.703125 -39.492188 16.421875 -40.703125 C 17.148438 -41.921875 17.90625 -43.113281 18.6875 -44.28125 C 18.882812 -44.550781 19.109375 -44.941406 19.359375 -45.453125 C 19.609375 -45.960938 19.96875 -46.21875 20.4375 -46.21875 C 20.632812 -46.21875 20.867188 -46.097656 21.140625 -45.859375 C 21.492188 -45.585938 21.710938 -45.296875 21.796875 -44.984375 C 21.953125 -44.316406 21.753906 -43.757812 21.203125 -43.3125 C 20.660156 -42.863281 20.210938 -42.445312 19.859375 -42.0625 C 18.960938 -41.082031 18.101562 -40.007812 17.28125 -38.84375 C 15.988281 -36.96875 14.832031 -34.972656 13.8125 -32.859375 C 12.800781 -30.753906 11.828125 -28.644531 10.890625 -26.53125 C 10.421875 -25.519531 9.941406 -24.503906 9.453125 -23.484375 C 8.972656 -22.472656 8.5 -21.457031 8.03125 -20.4375 C 7.75 -19.894531 7.484375 -19.335938 7.234375 -18.765625 C 6.984375 -18.203125 6.757812 -17.648438 6.5625 -17.109375 C 6.476562 -16.910156 6.378906 -16.554688 6.265625 -16.046875 C 6.148438 -15.535156 6.015625 -15.054688 5.859375 -14.609375 C 5.703125 -14.160156 5.523438 -13.898438 5.328125 -13.828125 L 8.671875 -15.40625 C 9.804688 -15.945312 10.910156 -16.472656 11.984375 -16.984375 C 13.054688 -17.492188 14.117188 -17.984375 15.171875 -18.453125 C 15.597656 -18.648438 16.066406 -18.796875 16.578125 -18.890625 C 17.085938 -18.984375 17.578125 -19.070312 18.046875 -19.15625 C 18.234375 -19.195312 18.414062 -19.222656 18.59375 -19.234375 C 18.769531 -19.253906 18.957031 -19.265625 19.15625 -19.265625 C 20.09375 -19.265625 20.773438 -18.875 21.203125 -18.09375 C 21.398438 -17.78125 21.46875 -17.398438 21.40625 -16.953125 C 21.351562 -16.503906 21.25 -16.164062 21.09375 -15.9375 C 20.894531 -15.695312 20.675781 -15.578125 20.4375 -15.578125 C 20.28125 -15.617188 20.203125 -15.738281 20.203125 -15.9375 L 20.203125 -16.109375 C 20.171875 -16.335938 20.132812 -16.515625 20.09375 -16.640625 C 20.007812 -16.867188 19.84375 -17.050781 19.59375 -17.1875 C 19.34375 -17.320312 19.097656 -17.410156 18.859375 -17.453125 C 18.390625 -17.453125 17.929688 -17.351562 17.484375 -17.15625 C 17.035156 -16.96875 16.597656 -16.753906 16.171875 -16.515625 C 16.015625 -16.441406 15.863281 -16.375 15.71875 -16.3125 C 15.582031 -16.25 15.457031 -16.203125 15.34375 -16.171875 C 14.019531 -15.578125 12.734375 -14.988281 11.484375 -14.40625 C 9.140625 -13.28125 6.816406 -11.992188 4.515625 -10.546875 C 3.890625 -10.148438 3.425781 -9.648438 3.125 -9.046875 C 2.832031 -8.441406 2.570312 -7.828125 2.34375 -7.203125 C 2.257812 -6.890625 2.160156 -6.585938 2.046875 -6.296875 C 1.929688 -6.003906 1.796875 -5.722656 1.640625 -5.453125 C 1.554688 -5.296875 1.484375 -5.140625 1.421875 -4.984375 C 1.367188 -4.828125 1.320312 -4.671875 1.28125 -4.515625 C 1.207031 -4.316406 1.148438 -4.160156 1.109375 -4.046875 C 0.367188 -2.171875 0.289062 -0.820312 0.875 0 C 1.5 0.820312 3.023438 1.390625 5.453125 1.703125 C 6.578125 1.859375 7.6875 1.9375 8.78125 1.9375 C 12.957031 1.9375 16.90625 0.898438 20.625 -1.171875 C 24.21875 -3.160156 27.359375 -5.738281 30.046875 -8.90625 C 30.085938 -8.976562 30.164062 -9.078125 30.28125 -9.203125 C 30.363281 -9.359375 30.460938 -9.492188 30.578125 -9.609375 C 30.691406 -9.722656 30.804688 -9.78125 30.921875 -9.78125 C 31.046875 -9.78125 31.203125 -9.703125 31.390625 -9.546875 Z M 31.390625 -9.546875 "/></g></g><g style="fill:#a29a88;fill-opacity:1;"><g transform="translate(160.634241, 223.778717)"><path style="stroke:none" d="M 1.1875 -0.046875 L 1.1875 -4.28125 C 1.1875 -4.4375 1.1875 -4.539062 1.1875 -4.59375 C 1.195312 -4.65625 1.222656 -4.707031 1.265625 -4.75 C 1.304688 -4.789062 1.367188 -4.8125 1.453125 -4.8125 C 1.617188 -4.8125 1.707031 -4.738281 1.71875 -4.59375 C 1.757812 -3.1875 2.195312 -2.097656 3.03125 -1.328125 C 3.851562 -0.566406 4.96875 -0.1875 6.375 -0.1875 C 7.21875 -0.1875 7.898438 -0.488281 8.421875 -1.09375 C 8.953125 -1.707031 9.21875 -2.414062 9.21875 -3.21875 C 9.21875 -3.976562 8.992188 -4.628906 8.546875 -5.171875 C 8.359375 -5.410156 8.148438 -5.609375 7.921875 -5.765625 C 7.691406 -5.921875 7.503906 -6.019531 7.359375 -6.0625 C 7.222656 -6.113281 7.019531 -6.175781 6.75 -6.25 C 5 -6.664062 4.066406 -6.898438 3.953125 -6.953125 C 3.117188 -7.234375 2.445312 -7.726562 1.9375 -8.4375 C 1.4375 -9.15625 1.1875 -9.953125 1.1875 -10.828125 C 1.1875 -11.953125 1.582031 -12.914062 2.375 -13.71875 C 3.175781 -14.519531 4.15625 -14.921875 5.3125 -14.921875 C 5.894531 -14.921875 6.425781 -14.828125 6.90625 -14.640625 C 7.394531 -14.460938 7.738281 -14.289062 7.9375 -14.125 C 8.132812 -13.96875 8.390625 -13.738281 8.703125 -13.4375 L 9.4375 -14.65625 C 9.550781 -14.832031 9.660156 -14.921875 9.765625 -14.921875 C 9.867188 -14.921875 9.929688 -14.890625 9.953125 -14.828125 C 9.984375 -14.765625 10 -14.628906 10 -14.421875 L 10 -10.15625 C 10 -10 9.992188 -9.894531 9.984375 -9.84375 C 9.972656 -9.789062 9.945312 -9.742188 9.90625 -9.703125 C 9.863281 -9.671875 9.800781 -9.65625 9.71875 -9.65625 C 9.582031 -9.65625 9.492188 -9.738281 9.453125 -9.90625 C 9.066406 -12.851562 7.691406 -14.328125 5.328125 -14.328125 C 4.523438 -14.328125 3.859375 -14.054688 3.328125 -13.515625 C 2.804688 -12.972656 2.546875 -12.320312 2.546875 -11.5625 C 2.546875 -10.9375 2.738281 -10.367188 3.125 -9.859375 C 3.507812 -9.359375 4.03125 -9.03125 4.6875 -8.875 L 7.390625 -8.21875 C 8.296875 -8 9.050781 -7.488281 9.65625 -6.6875 C 10.257812 -5.894531 10.5625 -4.976562 10.5625 -3.9375 C 10.5625 -2.738281 10.171875 -1.703125 9.390625 -0.828125 C 8.609375 0.0351562 7.609375 0.46875 6.390625 0.46875 C 5.515625 0.46875 4.738281 0.320312 4.0625 0.03125 C 3.382812 -0.257812 2.863281 -0.609375 2.5 -1.015625 C 2.21875 -0.546875 1.984375 -0.179688 1.796875 0.078125 L 1.734375 0.1875 C 1.628906 0.375 1.523438 0.46875 1.421875 0.46875 C 1.304688 0.46875 1.238281 0.429688 1.21875 0.359375 C 1.195312 0.296875 1.1875 0.160156 1.1875 -0.046875 Z M 1.1875 -0.046875 "/></g></g><g style="fill:#a29a88;fill-opacity:1;"><g transform="translate(179.870098, 223.778717)"><path style="stroke:none" d="M 1.1875 -7.234375 C 1.1875 -9.367188 1.910156 -11.179688 3.359375 -12.671875 C 4.816406 -14.171875 6.546875 -14.921875 8.546875 -14.921875 C 9.171875 -14.921875 9.757812 -14.804688 10.3125 -14.578125 C 10.863281 -14.359375 11.265625 -14.148438 11.515625 -13.953125 C 11.773438 -13.753906 12.085938 -13.472656 12.453125 -13.109375 L 13.515625 -14.671875 C 13.617188 -14.835938 13.726562 -14.921875 13.84375 -14.921875 C 13.957031 -14.921875 14.023438 -14.890625 14.046875 -14.828125 C 14.066406 -14.765625 14.078125 -14.628906 14.078125 -14.421875 L 14.078125 -9.390625 C 14.078125 -9.171875 14.0625 -9.03125 14.03125 -8.96875 C 14.007812 -8.914062 13.910156 -8.890625 13.734375 -8.890625 C 13.597656 -8.890625 13.515625 -8.910156 13.484375 -8.953125 C 13.453125 -8.992188 13.421875 -9.09375 13.390625 -9.25 C 13.179688 -10.769531 12.65625 -11.984375 11.8125 -12.890625 C 10.96875 -13.804688 9.957031 -14.265625 8.78125 -14.265625 C 8.445312 -14.265625 8.09375 -14.222656 7.71875 -14.140625 C 7.34375 -14.066406 6.882812 -13.882812 6.34375 -13.59375 C 5.800781 -13.3125 5.320312 -12.929688 4.90625 -12.453125 C 4.488281 -11.972656 4.128906 -11.28125 3.828125 -10.375 C 3.523438 -9.46875 3.375 -8.414062 3.375 -7.21875 C 3.375 -6.03125 3.523438 -4.976562 3.828125 -4.0625 C 4.128906 -3.15625 4.488281 -2.46875 4.90625 -2 C 5.320312 -1.53125 5.800781 -1.148438 6.34375 -0.859375 C 6.882812 -0.566406 7.34375 -0.378906 7.71875 -0.296875 C 8.101562 -0.222656 8.46875 -0.1875 8.8125 -0.1875 C 10.019531 -0.1875 11.085938 -0.613281 12.015625 -1.46875 C 12.953125 -2.332031 13.460938 -3.492188 13.546875 -4.953125 C 13.566406 -5.023438 13.578125 -5.070312 13.578125 -5.09375 C 13.578125 -5.125 13.582031 -5.15625 13.59375 -5.1875 C 13.601562 -5.226562 13.625 -5.253906 13.65625 -5.265625 C 13.695312 -5.285156 13.742188 -5.296875 13.796875 -5.296875 C 13.984375 -5.296875 14.078125 -5.175781 14.078125 -4.9375 C 14.078125 -3.59375 13.5625 -2.351562 12.53125 -1.21875 C 11.5 -0.09375 10.171875 0.46875 8.546875 0.46875 C 6.546875 0.46875 4.816406 -0.273438 3.359375 -1.765625 C 1.910156 -3.253906 1.1875 -5.078125 1.1875 -7.234375 Z M 1.1875 -7.234375 "/></g></g><g style="fill:#a29a88;fill-opacity:1;"><g transform="translate(202.640189, 223.778717)"><path style="stroke:none" d="M 0.6875 0 L 0.6875 -0.65625 C 1.9375 -0.675781 2.722656 -1.148438 3.046875 -2.078125 L 7.4375 -14.734375 C 7.488281 -14.898438 7.546875 -15.007812 7.609375 -15.0625 C 7.671875 -15.125 7.78125 -15.15625 7.9375 -15.15625 C 8.019531 -15.15625 8.085938 -15.144531 8.140625 -15.125 C 8.191406 -15.113281 8.234375 -15.082031 8.265625 -15.03125 C 8.304688 -14.988281 8.332031 -14.953125 8.34375 -14.921875 C 8.351562 -14.898438 8.378906 -14.835938 8.421875 -14.734375 L 13 -1.5 C 13.101562 -1.144531 13.269531 -0.914062 13.5 -0.8125 C 13.726562 -0.707031 14.160156 -0.65625 14.796875 -0.65625 L 15.171875 -0.65625 L 15.171875 0 C 14.285156 -0.0390625 13.363281 -0.0625 12.40625 -0.0625 C 10.882812 -0.0625 9.867188 -0.0390625 9.359375 0 L 9.359375 -0.65625 C 10.523438 -0.65625 11.109375 -0.867188 11.109375 -1.296875 C 11.109375 -1.316406 11.085938 -1.414062 11.046875 -1.59375 L 9.9375 -4.828125 L 4.703125 -4.828125 L 3.71875 -2.0625 C 3.695312 -2 3.6875 -1.890625 3.6875 -1.734375 C 3.6875 -1.441406 3.820312 -1.1875 4.09375 -0.96875 C 4.363281 -0.757812 4.753906 -0.65625 5.265625 -0.65625 L 5.265625 0 C 3.910156 -0.0390625 3.097656 -0.0625 2.828125 -0.0625 C 2.367188 -0.0625 1.65625 -0.0390625 0.6875 0 Z M 4.9375 -5.484375 L 9.703125 -5.484375 L 7.3125 -12.359375 Z M 4.9375 -5.484375 "/></g></g><g style="fill:#a29a88;fill-opacity:1;"><g transform="translate(226.009652, 223.778717)"><path style="stroke:none" d="M 0.703125 0 L 0.703125 -0.65625 L 1.203125 -0.65625 C 1.972656 -0.65625 2.445312 -0.71875 2.625 -0.84375 C 2.800781 -0.96875 2.890625 -1.238281 2.890625 -1.65625 L 2.890625 -12.8125 C 2.890625 -13.21875 2.796875 -13.484375 2.609375 -13.609375 C 2.429688 -13.734375 1.960938 -13.796875 1.203125 -13.796875 L 0.703125 -13.796875 L 0.703125 -14.46875 C 1.203125 -14.425781 2.273438 -14.40625 3.921875 -14.40625 C 5.773438 -14.40625 6.957031 -14.425781 7.46875 -14.46875 L 7.46875 -13.796875 L 6.765625 -13.796875 C 6.117188 -13.796875 5.644531 -13.753906 5.34375 -13.671875 C 5.050781 -13.585938 4.878906 -13.488281 4.828125 -13.375 C 4.785156 -13.269531 4.765625 -13.070312 4.765625 -12.78125 L 4.765625 -1.5 C 4.765625 -1.132812 4.816406 -0.898438 4.921875 -0.796875 C 5.035156 -0.703125 5.328125 -0.65625 5.796875 -0.65625 L 7.53125 -0.65625 C 8.25 -0.65625 8.863281 -0.757812 9.375 -0.96875 C 9.894531 -1.1875 10.289062 -1.425781 10.5625 -1.6875 C 10.84375 -1.957031 11.070312 -2.347656 11.25 -2.859375 C 11.4375 -3.367188 11.5625 -3.785156 11.625 -4.109375 C 11.6875 -4.429688 11.742188 -4.878906 11.796875 -5.453125 L 12.328125 -5.453125 L 11.734375 0 Z M 0.703125 0 "/></g></g><g style="fill:#a29a88;fill-opacity:1;"><g transform="translate(246.733608, 223.778717)"><path style="stroke:none" d="M 0.703125 0 L 0.703125 -0.65625 L 1.203125 -0.65625 C 1.972656 -0.65625 2.445312 -0.71875 2.625 -0.84375 C 2.800781 -0.96875 2.890625 -1.238281 2.890625 -1.65625 L 2.890625 -12.75 C 2.890625 -13.15625 2.796875 -13.421875 2.609375 -13.546875 C 2.429688 -13.671875 1.960938 -13.734375 1.203125 -13.734375 L 0.703125 -13.734375 L 0.703125 -14.40625 L 12.625 -14.40625 L 13.21875 -9.640625 L 12.6875 -9.640625 C 12.59375 -10.441406 12.476562 -11.070312 12.34375 -11.53125 C 12.21875 -12 12 -12.410156 11.6875 -12.765625 C 11.382812 -13.128906 10.984375 -13.378906 10.484375 -13.515625 C 9.984375 -13.660156 9.332031 -13.734375 8.53125 -13.734375 L 5.796875 -13.734375 C 5.316406 -13.734375 5.023438 -13.679688 4.921875 -13.578125 C 4.816406 -13.484375 4.765625 -13.253906 4.765625 -12.890625 L 4.765625 -7.8125 L 6.671875 -7.8125 C 7.640625 -7.8125 8.257812 -7.976562 8.53125 -8.3125 C 8.8125 -8.65625 8.953125 -9.3125 8.953125 -10.28125 L 9.484375 -10.28125 L 9.484375 -4.6875 L 8.953125 -4.6875 C 8.953125 -5.644531 8.8125 -6.296875 8.53125 -6.640625 C 8.257812 -6.984375 7.640625 -7.15625 6.671875 -7.15625 L 4.765625 -7.15625 L 4.765625 -1.5 C 4.765625 -1.132812 4.816406 -0.898438 4.921875 -0.796875 C 5.035156 -0.703125 5.328125 -0.65625 5.796875 -0.65625 L 8.625 -0.65625 C 9.226562 -0.65625 9.75 -0.691406 10.1875 -0.765625 C 10.632812 -0.847656 11.015625 -0.988281 11.328125 -1.1875 C 11.640625 -1.382812 11.898438 -1.59375 12.109375 -1.8125 C 12.316406 -2.039062 12.492188 -2.359375 12.640625 -2.765625 C 12.796875 -3.179688 12.914062 -3.578125 13 -3.953125 C 13.082031 -4.335938 13.175781 -4.835938 13.28125 -5.453125 L 13.796875 -5.453125 L 12.90625 0 Z M 0.703125 0 "/></g></g></g></svg>